<?xml version="1.0" encoding="UTF-8" standalone="no" ?>
<!DOCTYPE svg PUBLIC "-//W3C//DTD SVG 1.1//EN" "http://www.w3.org/Graphics/SVG/1.1/DTD/svg11.dtd">
<svg xmlns="http://www.w3.org/2000/svg" xmlns:xlink="http://www.w3.org/1999/xlink" version="1.1" width="1080" height="500" viewBox="0 0 1080 500" xml:space="preserve">
<desc>Created with Fabric.js 5.2.4</desc>
<defs>
</defs>
<g transform="matrix(1 0 0 1 540 250)" id="e6c4e450-b9e5-4774-9e38-d5e77bb36e2a"  >
<rect style="stroke: none; stroke-width: 1; stroke-dasharray: none; stroke-linecap: butt; stroke-dashoffset: 0; stroke-linejoin: miter; stroke-miterlimit: 4; fill: rgb(255,255,255); fill-rule: nonzero; opacity: 1; visibility: hidden;" vector-effect="non-scaling-stroke"  x="-540" y="-250" rx="0" ry="0" width="1080" height="500" />
</g>
<g transform="matrix(Infinity NaN NaN Infinity 0 0)" id="0a460108-0e72-488f-a99c-9afbebc488e5"  >
</g>
<g transform="matrix(3.25 0 0 3.25 540 250)"  >
<g style="" vector-effect="non-scaling-stroke"   >
		<g transform="matrix(0.13 0 0 -0.13 -97.55 0)"  >
<path style="stroke: none; stroke-width: 1; stroke-dasharray: none; stroke-linecap: butt; stroke-dashoffset: 0; stroke-linejoin: miter; stroke-miterlimit: 4; fill: rgb(255,255,255); fill-rule: nonzero; opacity: 1;" vector-effect="non-scaling-stroke"  transform=" translate(-883.95, -1495.18)" d="M 887 1983 C 850 1970 827 1953 792 1912 C 719 1826 712 1820 681 1820 C 643 1820 625 1842 640 1869 C 646 1881 660 1890 670 1890 C 681 1890 690 1895 690 1900 C 690 1917 651 1911 630 1890 C 591 1851 618 1790 673 1790 C 715 1790 748 1813 804 1882 C 903 2003 1054 2026 1084 1923 C 1091 1902 1089 1902 1035 1907 L 978 1913 L 897 1827 C 796 1720 755 1700 620 1690 C 530 1684 480 1670 480 1651 C 480 1646 498 1646 521 1651 C 543 1656 565 1658 570 1655 C 575 1652 608 1649 642 1649 C 707 1648 789 1676 835 1714 C 847 1724 835 1721 805 1706 C 732 1671 677 1658 649 1669 C 628 1677 631 1679 670 1679 C 730 1680 827 1727 893 1787 C 986 1873 1000 1884 1000 1872 C 1000 1850 881 1723 827 1687 C 791 1663 741 1642 682 1627 C 559 1595 508 1557 478 1475 C 473 1463 472 1468 475 1489 C 482 1537 525 1588 576 1610 C 627 1632 635 1644 588 1628 C 533 1610 503 1582 476 1528 C 450 1476 442 1420 460 1420 C 466 1420 470 1425 470 1430 C 470 1445 549 1519 584 1537 C 600 1545 638 1561 668 1571 C 752 1600 797 1630 899 1729 C 994 1820 1014 1831 1039 1808 C 1050 1797 1052 1798 1048 1810 C 1045 1818 1034 1826 1022 1828 C 1010 1830 1000 1836 1000 1841 C 1000 1858 1042 1892 1057 1886 C 1065 1883 1076 1880 1082 1880 C 1088 1880 1090 1867 1086 1845 C 1082 1826 1084 1802 1089 1791 C 1097 1777 1096 1769 1085 1760 C 1077 1753 1072 1744 1075 1740 C 1084 1726 1052 1709 1027 1715 C 1005 1721 1003 1719 1007 1696 C 1012 1673 1009 1670 987 1670 C 950 1670 938 1641 946 1572 C 957 1471 926 1399 855 1363 C 832 1351 838 1359 879 1398 C 921 1438 931 1453 927 1470 C 924 1482 925 1503 930 1516 C 936 1532 936 1540 929 1540 C 922 1540 921 1553 924 1573 C 929 1596 923 1589 902 1544 C 883 1505 858 1472 829 1449 C 772 1403 730 1377 730 1388 C 730 1392 744 1404 762 1414 C 819 1448 869 1501 886 1546 C 908 1604 897 1614 870 1561 C 837 1496 782 1441 716 1408 C 608 1354 580 1312 580 1203 C 580 1145 583 1135 609 1110 C 625 1094 650 1078 666 1075 C 682 1072 703 1065 713 1059 C 723 1054 730 1054 730 1059 C 730 1064 713 1075 693 1083 C 626 1110 590 1173 606 1236 C 616 1274 625 1264 625 1217 C 625 1165 647 1128 700 1095 C 722 1081 740 1062 741 1052 C 741 1041 743 1039 747 1048 C 750 1055 740 1089 725 1122 C 694 1191 689 1261 713 1307 C 722 1324 757 1361 792 1391 C 860 1449 875 1467 902 1514 C 924 1554 925 1529 903 1487 C 888 1456 888 1456 905 1470 C 921 1483 923 1483 918 1470 C 916 1462 878 1428 835 1395 C 792 1362 748 1321 738 1305 C 714 1266 715 1203 740 1140 C 766 1073 765 1052 733 1018 C 714 998 711 990 721 990 C 730 990 746 1000 758 1013 C 784 1041 787 1089 765 1151 C 736 1231 764 1294 848 1343 L 879 1361 L 866 1323 C 858 1302 840 1259 825 1228 C 811 1196 802 1166 805 1160 C 815 1144 830 1159 830 1184 C 830 1199 849 1225 883 1256 C 911 1284 942 1315 950 1325 C 965 1344 987 1406 992 1444 C 994 1458 1004 1463 1032 1465 C 1053 1466 1067 1463 1064 1458 C 1061 1454 1045 1450 1027 1450 C 1004 1450 999 1447 1007 1439 C 1020 1426 1078 1444 1092 1464 C 1097 1471 1103 1471 1112 1462 C 1123 1451 1120 1445 1100 1429 C 1038 1380 1021 1357 1014 1311 C 1011 1286 1001 1259 992 1253 C 979 1242 978 1231 986 1180 C 992 1147 994 1117 991 1115 C 983 1106 952 1162 957 1176 C 963 1193 944 1194 934 1178 C 929 1171 927 1154 928 1139 C 930 1117 924 1110 900 1102 C 884 1096 870 1087 870 1081 C 870 1030 935 1023 982 1071 C 1012 1100 1013 1103 1006 1169 C 1000 1234 1001 1237 1025 1248 C 1046 1258 1050 1257 1050 1244 C 1050 1232 1057 1234 1081 1254 C 1098 1268 1115 1280 1120 1280 C 1134 1280 1140 1250 1140 1179 L 1140 1110 L 1101 1086 C 1079 1072 1059 1056 1055 1050 C 1052 1045 1042 1040 1033 1040 C 1019 1040 1019 1042 1034 1059 C 1044 1070 1050 1086 1048 1096 C 1046 1108 1038 1102 1020 1074 C 1006 1053 984 1030 970 1023 C 933 1004 870 1007 827 1029 C 806 1040 790 1044 792 1038 C 799 1018 864 990 905 990 C 962 990 1056 1024 1113 1065 L 1160 1100 L 1160 1172 C 1160 1266 1136 1334 1115 1300 C 1112 1295 1103 1290 1097 1290 C 1090 1291 1095 1299 1107 1309 C 1122 1321 1127 1334 1123 1349 C 1117 1373 1100 1378 1100 1355 C 1100 1347 1096 1332 1091 1322 C 1086 1313 1079 1297 1076 1288 C 1069 1264 1030 1264 1030 1288 C 1030 1331 1079 1398 1100 1385 C 1105 1382 1110 1386 1110 1394 C 1110 1415 1173 1425 1220 1411 C 1306 1385 1317 1271 1235 1246 C 1224 1243 1208 1245 1200 1250 C 1188 1258 1192 1260 1215 1261 C 1239 1262 1240 1264 1223 1267 C 1206 1270 1200 1278 1200 1297 C 1200 1313 1193 1324 1181 1327 C 1170 1330 1159 1343 1156 1356 C 1152 1369 1145 1380 1139 1380 C 1133 1380 1131 1373 1134 1364 C 1137 1355 1140 1342 1140 1335 C 1140 1327 1149 1318 1161 1315 C 1178 1309 1181 1303 1176 1276 C 1169 1237 1196 1215 1240 1225 C 1332 1245 1345 1355 1264 1419 C 1244 1434 1223 1440 1184 1440 C 1154 1440 1130 1442 1130 1445 C 1130 1448 1139 1459 1150 1470 C 1171 1491 1177 1535 1160 1545 C 1154 1549 1159 1563 1174 1581 C 1197 1608 1219 1694 1207 1707 C 1203 1710 1196 1692 1190 1667 C 1178 1620 1127 1550 1115 1562 C 1111 1566 1121 1585 1138 1605 C 1174 1645 1195 1711 1184 1749 C 1177 1772 1176 1771 1170 1730 C 1161 1667 1109 1580 1080 1580 C 1074 1580 1081 1595 1096 1613 C 1171 1702 1178 1780 1117 1848 C 1106 1860 1101 1870 1106 1870 C 1122 1870 1168 1817 1189 1775 C 1201 1751 1209 1742 1210 1753 C 1210 1776 1194 1808 1167 1838 C 1156 1850 1151 1860 1158 1860 C 1179 1860 1212 1798 1219 1747 C 1225 1705 1227 1699 1234 1718 C 1238 1730 1238 1754 1235 1771 C 1227 1805 1163 1883 1149 1875 C 1145 1872 1132 1890 1121 1914 C 1085 1996 1001 2021 887 1983 z M 1120 1696 C 1106 1653 1054 1602 1039 1617 C 1023 1633 1023 1692 1039 1698 C 1049 1701 1051 1693 1046 1659 L 1039 1615 L 1069 1647 C 1086 1665 1105 1701 1112 1727 C 1121 1762 1126 1769 1128 1752 C 1130 1740 1127 1715 1120 1696 z M 1025 1617 C 1037 1598 1066 1575 1097 1560 C 1164 1527 1166 1524 1125 1523 C 1106 1522 1086 1528 1079 1536 C 1064 1554 1050 1554 1050 1536 C 1050 1520 1001 1527 999 1544 C 998 1550 994 1534 990 1509 C 977 1435 929 1323 897 1293 C 872 1270 868 1269 874 1285 C 878 1296 884 1319 887 1335 C 890 1352 903 1376 916 1390 C 950 1428 960 1463 960 1554 C 960 1599 963 1640 967 1643 C 982 1658 1006 1647 1025 1617 z M 731 1616 C 719 1602 631 1575 623 1584 C 619 1587 645 1597 739 1629 C 741 1629 737 1624 731 1616 z M 1055 1490 C 1055 1482 1046 1474 1035 1472 C 1019 1469 1018 1471 1030 1479 C 1042 1488 1041 1490 1023 1490 C 1010 1490 1000 1495 1000 1501 C 1000 1507 1012 1510 1028 1508 C 1044 1506 1055 1499 1055 1490 z M 1150 1499 C 1150 1494 1146 1492 1140 1495 C 1135 1498 1130 1494 1130 1485 C 1130 1472 1126 1471 1110 1480 C 1099 1486 1092 1495 1095 1501 C 1103 1513 1150 1513 1150 1499 z M 675 1296 C 662 1265 657 1260 645 1270 C 624 1287 626 1297 657 1328 C 689 1360 696 1347 675 1296 z M 963 1073 C 944 1058 900 1056 900 1068 C 900 1073 911 1082 925 1088 C 939 1094 950 1108 950 1117 C 951 1131 954 1129 965 1110 C 977 1088 977 1084 963 1073 z" stroke-linecap="round" />
</g>
		<g transform="matrix(0.13 0 0 -0.13 -114.55 -46.76)"  >
<path style="stroke: none; stroke-width: 1; stroke-dasharray: none; stroke-linecap: butt; stroke-dashoffset: 0; stroke-linejoin: miter; stroke-miterlimit: 4; fill: rgb(255,255,255); fill-rule: nonzero; opacity: 1;" vector-effect="non-scaling-stroke"  transform=" translate(-756.39, -1845.89)" d="M 930 1962 C 867 1930 842 1909 801 1856 C 756 1796 704 1766 654 1772 C 614 1777 608 1763 645 1754 C 692 1742 754 1776 819 1848 C 867 1902 940 1962 940 1948 C 940 1935 758 1759 736 1750 C 694 1734 637 1738 589 1760 C 565 1771 535 1780 523 1780 C 499 1780 441 1736 452 1725 C 455 1721 468 1728 479 1739 C 506 1766 526 1765 595 1734 C 659 1705 704 1706 768 1739 C 803 1757 960 1913 960 1930 C 960 1940 986 1950 1008 1950 C 1018 1949 1013 1944 997 1937 C 970 1925 971 1925 1018 1925 C 1062 1925 1067 1927 1059 1942 C 1037 1982 986 1990 930 1962 z" stroke-linecap="round" />
</g>
		<g transform="matrix(0.13 0 0 -0.13 26.58 1.38)"  >
<path style="stroke: none; stroke-width: 1; stroke-dasharray: none; stroke-linecap: butt; stroke-dashoffset: 0; stroke-linejoin: miter; stroke-miterlimit: 4; fill: rgb(255,255,255); fill-rule: nonzero; opacity: 1;" vector-effect="non-scaling-stroke"  transform=" translate(-1814.86, -1484.83)" d="M 1625 1750 C 1610 1743 1616 1741 1651 1741 C 1683 1740 1702 1734 1715 1720 C 1732 1701 1730 1695 1660 1526 C 1598 1378 1583 1349 1561 1341 C 1540 1333 1546 1331 1599 1331 C 1657 1330 1662 1332 1645 1344 C 1626 1357 1626 1359 1645 1414 L 1664 1470 L 1745 1470 L 1825 1470 L 1844 1410 C 1884 1285 1956 1210 2036 1210 C 2060 1210 2080 1215 2080 1220 C 2080 1226 2065 1230 2046 1230 C 1971 1230 1925 1297 1846 1518 C 1816 1601 1783 1685 1771 1703 C 1740 1754 1679 1773 1625 1750 z M 1786 1580 L 1816 1490 L 1748 1490 C 1697 1490 1679 1493 1682 1503 C 1690 1534 1745 1670 1750 1670 C 1753 1670 1769 1629 1786 1580 z" stroke-linecap="round" />
</g>
		<g transform="matrix(0.13 0 0 -0.13 104.59 1.43)"  >
<path style="stroke: none; stroke-width: 1; stroke-dasharray: none; stroke-linecap: butt; stroke-dashoffset: 0; stroke-linejoin: miter; stroke-miterlimit: 4; fill: rgb(255,255,255); fill-rule: nonzero; opacity: 1;" vector-effect="non-scaling-stroke"  transform=" translate(-2400, -1484.48)" d="M 2380 1750 C 2369 1743 2376 1740 2406 1740 C 2431 1740 2456 1733 2469 1723 L 2490 1705 L 2420 1542 C 2381 1452 2350 1375 2350 1369 C 2350 1364 2338 1354 2324 1348 C 2298 1336 2294 1339 2219 1420 L 2142 1504 L 2170 1521 C 2247 1569 2251 1671 2177 1712 C 2153 1725 1970 1732 1970 1720 C 1970 1716 1979 1710 1990 1707 C 2009 1702 2010 1693 2010 1527 C 2010 1356 2010 1353 1988 1342 C 1969 1333 1978 1331 2035 1331 C 2094 1332 2100 1333 2078 1342 L 2050 1352 L 2050 1531 L 2050 1710 L 2074 1710 C 2133 1710 2162 1697 2177 1665 C 2195 1628 2189 1570 2165 1550 C 2157 1544 2132 1536 2110 1533 L 2069 1527 L 2137 1456 C 2301 1282 2323 1261 2354 1246 C 2390 1229 2470 1224 2470 1238 C 2470 1243 2457 1247 2441 1248 C 2404 1249 2362 1270 2331 1304 L 2307 1330 L 2360 1330 C 2407 1330 2412 1332 2396 1343 C 2378 1356 2378 1359 2398 1411 L 2418 1465 L 2496 1468 L 2575 1471 L 2598 1406 C 2628 1324 2672 1256 2714 1230 C 2749 1209 2830 1202 2830 1220 C 2830 1226 2815 1230 2796 1230 C 2724 1230 2673 1306 2595 1530 C 2542 1684 2520 1724 2480 1745 C 2447 1762 2402 1764 2380 1750 z M 2538 1580 L 2569 1490 L 2498 1490 C 2460 1490 2430 1493 2432 1498 C 2434 1502 2449 1542 2465 1587 C 2482 1633 2498 1670 2502 1670 C 2505 1670 2522 1630 2538 1580 z" stroke-linecap="round" />
</g>
		<g transform="matrix(0.13 0 0 -0.13 -121.98 1.67)"  >
<path style="stroke: none; stroke-width: 1; stroke-dasharray: none; stroke-linecap: butt; stroke-dashoffset: 0; stroke-linejoin: miter; stroke-miterlimit: 4; fill: rgb(255,255,255); fill-rule: nonzero; opacity: 1;" vector-effect="non-scaling-stroke"  transform=" translate(-700.67, -1482.67)" d="M 865 1679 C 797 1610 753 1579 695 1560 C 536 1509 440 1399 453 1284 C 455 1259 463 1233 469 1227 C 478 1218 479 1225 474 1257 C 469 1289 473 1309 490 1344 C 519 1405 555 1433 647 1467 C 720 1493 730 1501 835 1608 C 895 1671 947 1726 948 1731 C 958 1758 917 1733 865 1679 z M 770 1566 C 770 1554 700 1510 653 1491 C 577 1461 588 1483 665 1515 C 701 1531 735 1549 741 1557 C 752 1569 770 1575 770 1566 z" stroke-linecap="round" />
</g>
		<g transform="matrix(0.13 0 0 -0.13 -27.8 -5.24)"  >
<path style="stroke: none; stroke-width: 1; stroke-dasharray: none; stroke-linecap: butt; stroke-dashoffset: 0; stroke-linejoin: miter; stroke-miterlimit: 4; fill: rgb(255,255,255); fill-rule: nonzero; opacity: 1;" vector-effect="non-scaling-stroke"  transform=" translate(-1407.03, -1534.5)" d="M 1420 1728 C 1379 1723 1335 1712 1323 1704 C 1283 1679 1298 1620 1344 1620 C 1364 1620 1364 1621 1342 1636 C 1298 1666 1319 1694 1393 1705 L 1440 1712 L 1438 1534 L 1435 1356 L 1410 1343 C 1388 1332 1392 1330 1455 1330 C 1518 1330 1522 1332 1500 1343 L 1475 1356 L 1472 1525 L 1469 1695 L 1497 1717 C 1513 1731 1519 1739 1510 1739 C 1502 1738 1461 1733 1420 1728 z" stroke-linecap="round" />
</g>
		<g transform="matrix(0.13 0 0 -0.13 -149.63 -16.88)"  >
<path style="stroke: none; stroke-width: 1; stroke-dasharray: none; stroke-linecap: butt; stroke-dashoffset: 0; stroke-linejoin: miter; stroke-miterlimit: 4; fill: rgb(255,255,255); fill-rule: nonzero; opacity: 1;" vector-effect="non-scaling-stroke"  transform=" translate(-493.29, -1621.75)" d="M 505 1701 C 461 1674 424 1630 409 1587 C 398 1555 398 1548 412 1534 C 426 1520 427 1520 423 1543 C 413 1595 488 1693 548 1706 C 593 1716 596 1718 565 1719 C 549 1720 522 1712 505 1701 z" stroke-linecap="round" />
</g>
		<g transform="matrix(0.13 0 0 -0.13 -121.21 16.13)"  >
<path style="stroke: none; stroke-width: 1; stroke-dasharray: none; stroke-linecap: butt; stroke-dashoffset: 0; stroke-linejoin: miter; stroke-miterlimit: 4; fill: rgb(255,255,255); fill-rule: nonzero; opacity: 1;" vector-effect="non-scaling-stroke"  transform=" translate(-706.48, -1374.23)" d="M 824 1577 C 750 1492 738 1483 673 1459 C 634 1445 589 1423 572 1411 C 476 1343 466 1202 550 1118 C 571 1097 594 1080 601 1080 C 608 1080 600 1094 583 1110 C 549 1144 536 1191 546 1248 C 560 1328 602 1376 700 1425 C 736 1443 777 1471 792 1487 C 825 1522 920 1652 920 1662 C 920 1680 900 1663 824 1577 z" stroke-linecap="round" />
</g>
		<g transform="matrix(0.13 0 0 -0.13 -69.98 38.57)"  >
<path style="stroke: none; stroke-width: 1; stroke-dasharray: none; stroke-linecap: butt; stroke-dashoffset: 0; stroke-linejoin: miter; stroke-miterlimit: 4; fill: rgb(255,255,255); fill-rule: nonzero; opacity: 1;" vector-effect="non-scaling-stroke"  transform=" translate(-1090.66, -1205.91)" d="M 1092 1225 C 1085 1203 1076 1179 1074 1173 C 1071 1166 1073 1160 1078 1160 C 1091 1160 1113 1224 1108 1247 C 1106 1258 1100 1250 1092 1225 z" stroke-linecap="round" />
</g>
</g>
</g>
</svg>