<?xml version="1.0" encoding="UTF-8" standalone="no" ?>
<!DOCTYPE svg PUBLIC "-//W3C//DTD SVG 1.1//EN" "http://www.w3.org/Graphics/SVG/1.1/DTD/svg11.dtd">
<svg xmlns="http://www.w3.org/2000/svg" xmlns:xlink="http://www.w3.org/1999/xlink" version="1.1" width="500" height="500" viewBox="0 0 500 500" xml:space="preserve">
<desc>Created with Fabric.js 5.2.4</desc>
<defs>
</defs>
<rect x="0" y="0" width="100%" height="100%" fill="transparent"></rect>
<g transform="matrix(1 0 0 1 250 250)" id="e6c4e450-b9e5-4774-9e38-d5e77bb36e2a"  >
<rect style="stroke: none; stroke-width: 1; stroke-dasharray: none; stroke-linecap: butt; stroke-dashoffset: 0; stroke-linejoin: miter; stroke-miterlimit: 4; fill: rgb(255,255,255); fill-rule: nonzero; opacity: 1; visibility: hidden;" vector-effect="non-scaling-stroke"  x="-250" y="-250" rx="0" ry="0" width="500" height="500" />
</g>
<g transform="matrix(Infinity NaN NaN Infinity 0 0)" id="0a460108-0e72-488f-a99c-9afbebc488e5"  >
</g>
<g transform="matrix(1.67 0 0 1.67 250 250)"  >
<g style=""   >
		<g transform="matrix(0.13 0 0 -0.13 5.17 0.76)"  >
<path style="stroke: none; stroke-width: 1; stroke-dasharray: none; stroke-linecap: butt; stroke-dashoffset: 0; stroke-linejoin: miter; stroke-miterlimit: 4; fill: rgb(255,255,255); fill-rule: nonzero; opacity: 1;" vector-effect="non-scaling-stroke"  transform=" translate(-1538.76, -1494.27)" d="M 1595 2385 C 1447 2347 1405 2320 1318 2203 C 1279 2151 1236 2102 1223 2093 C 1192 2073 1109 2070 1087 2089 C 1046 2122 1088 2210 1145 2210 C 1174 2210 1179 2225 1151 2233 C 1122 2240 1072 2214 1050 2178 C 1020 2131 1029 2084 1076 2041 C 1107 2012 1117 2008 1150 2013 C 1212 2021 1258 2050 1313 2113 C 1463 2288 1542 2347 1660 2371 C 1762 2391 1840 2350 1870 2261 C 1887 2210 1878 2201 1837 2225 C 1797 2249 1727 2249 1679 2226 C 1658 2216 1612 2173 1574 2127 C 1420 1945 1396 1925 1280 1884 C 1219 1862 1179 1856 1060 1850 C 904 1841 845 1825 805 1780 C 785 1757 785 1757 805 1764 C 848 1780 936 1782 1032 1770 C 1112 1759 1141 1759 1183 1769 C 1250 1785 1405 1862 1450 1901 C 1481 1928 1476 1926 1399 1886 C 1277 1821 1210 1800 1123 1800 C 1081 1800 1050 1804 1050 1810 C 1050 1816 1079 1820 1118 1820 C 1251 1820 1395 1890 1540 2026 C 1609 2090 1721 2180 1733 2180 C 1749 2180 1651 2052 1565 1962 C 1501 1894 1398 1817 1329 1786 C 1299 1772 1214 1745 1139 1727 C 1064 1708 986 1683 964 1672 C 882 1629 790 1503 790 1433 L 790 1398 L 840 1453 C 911 1531 997 1582 1135 1630 C 1201 1652 1274 1682 1299 1697 C 1349 1726 1438 1807 1597 1967 C 1665 2036 1717 2080 1729 2080 C 1740 2080 1765 2071 1784 2059 C 1804 2047 1820 2043 1820 2048 C 1820 2065 1751 2102 1730 2097 C 1702 2090 1705 2101 1746 2148 C 1784 2193 1808 2199 1855 2178 C 1881 2166 1882 2164 1875 2102 C 1870 2052 1872 2034 1885 2013 C 1902 1988 1901 1987 1875 1964 C 1860 1952 1851 1937 1854 1932 C 1857 1927 1852 1914 1844 1902 C 1828 1878 1797 1874 1756 1890 C 1728 1900 1710 1886 1735 1873 C 1748 1866 1748 1858 1739 1832 C 1730 1805 1723 1800 1696 1800 C 1675 1800 1656 1792 1644 1779 C 1627 1760 1625 1744 1628 1630 C 1633 1430 1605 1349 1507 1282 C 1462 1250 1420 1234 1420 1247 C 1420 1251 1445 1270 1475 1288 C 1538 1326 1573 1368 1595 1429 C 1603 1453 1610 1475 1610 1478 C 1610 1481 1588 1459 1561 1429 C 1534 1398 1476 1350 1433 1320 C 1274 1212 1216 1133 1217 1025 C 1218 968 1224 945 1279 796 C 1307 722 1301 691 1248 634 C 1213 596 1210 590 1228 590 C 1261 590 1317 650 1330 700 C 1341 740 1340 754 1320 820 C 1278 959 1276 975 1289 1036 C 1306 1109 1357 1166 1460 1226 C 1556 1281 1596 1318 1621 1376 C 1645 1430 1660 1560 1653 1651 C 1650 1688 1650 1729 1654 1743 C 1667 1798 1737 1781 1763 1717 C 1783 1671 1839 1626 1907 1600 C 1975 1575 2010 1554 2010 1539 C 2010 1531 2005 1532 1995 1540 C 1981 1552 1951 1550 1903 1535 C 1886 1530 1880 1532 1880 1542 C 1880 1559 1849 1590 1832 1590 C 1825 1590 1820 1579 1820 1566 C 1820 1545 1816 1543 1775 1544 C 1736 1545 1730 1548 1730 1568 C 1730 1581 1724 1590 1714 1590 C 1702 1590 1699 1584 1704 1564 C 1714 1526 1692 1423 1660 1361 C 1645 1330 1629 1288 1626 1268 C 1616 1212 1511 1080 1476 1080 C 1473 1080 1482 1104 1495 1133 C 1521 1189 1529 1232 1516 1240 C 1512 1243 1493 1202 1473 1150 C 1453 1098 1426 1038 1412 1015 C 1380 965 1369 880 1394 880 C 1406 880 1410 890 1410 919 C 1410 969 1439 1012 1519 1075 C 1553 1103 1595 1146 1611 1171 C 1628 1195 1645 1217 1651 1218 C 1656 1220 1660 1232 1660 1245 C 1660 1258 1669 1284 1679 1302 C 1689 1320 1701 1361 1705 1393 C 1711 1443 1714 1450 1728 1444 C 1765 1428 1801 1428 1825 1444 C 1839 1453 1850 1456 1850 1451 C 1850 1432 1805 1410 1768 1410 C 1724 1410 1709 1393 1745 1384 C 1762 1380 1787 1384 1813 1396 C 1836 1407 1861 1415 1870 1415 C 1880 1415 1884 1423 1882 1437 C 1879 1457 1881 1458 1904 1447 C 1923 1438 1930 1427 1930 1408 C 1930 1386 1922 1376 1890 1360 C 1832 1331 1773 1268 1761 1223 C 1755 1202 1750 1162 1750 1133 C 1750 1085 1748 1080 1715 1060 C 1675 1035 1675 1034 1695 957 C 1714 885 1715 785 1697 814 C 1690 824 1675 846 1662 861 C 1644 883 1640 897 1645 920 C 1654 960 1631 960 1607 921 C 1595 900 1591 880 1596 853 C 1601 819 1599 813 1578 803 C 1566 797 1543 789 1528 786 C 1504 780 1500 775 1500 746 C 1500 699 1522 680 1574 680 C 1605 680 1629 688 1659 708 C 1742 764 1763 832 1732 940 C 1722 976 1715 1011 1717 1018 C 1722 1031 1791 1070 1810 1070 C 1816 1070 1818 1060 1814 1045 C 1806 1012 1821 1013 1847 1049 C 1859 1064 1886 1086 1907 1097 L 1946 1117 L 1962 1076 C 1978 1033 1981 858 1966 812 C 1962 800 1942 781 1922 771 C 1902 760 1875 741 1862 727 C 1836 699 1763 663 1753 674 C 1749 677 1758 693 1773 708 C 1801 737 1823 784 1813 794 C 1801 806 1792 800 1786 777 C 1778 742 1712 672 1667 649 C 1616 622 1525 614 1474 630 C 1453 637 1415 656 1391 672 C 1367 688 1345 699 1342 696 C 1332 685 1374 650 1428 623 C 1473 601 1495 597 1559 597 C 1643 599 1768 633 1831 672 C 1851 685 1882 704 1901 715 C 1919 726 1952 751 1972 771 L 2010 808 L 2010 924 C 2010 1015 2005 1053 1989 1105 C 1965 1175 1950 1185 1924 1145 C 1915 1131 1904 1120 1899 1120 C 1880 1120 1892 1144 1926 1175 C 1948 1195 1957 1210 1951 1215 C 1945 1218 1940 1234 1940 1251 C 1940 1270 1935 1280 1925 1280 C 1907 1280 1887 1243 1894 1223 C 1897 1215 1893 1199 1885 1187 C 1877 1175 1870 1153 1870 1138 C 1870 1106 1866 1103 1815 1099 L 1775 1095 L 1778 1135 C 1780 1157 1788 1185 1796 1197 C 1804 1209 1810 1225 1810 1233 C 1810 1240 1828 1264 1850 1285 C 1879 1313 1890 1319 1890 1307 C 1890 1298 1895 1290 1900 1290 C 1906 1290 1910 1298 1910 1308 C 1910 1333 1952 1351 2026 1357 C 2078 1362 2097 1358 2144 1337 C 2182 1319 2200 1305 2200 1293 C 2200 1283 2209 1269 2220 1263 C 2260 1237 2255 1126 2211 1086 C 2179 1057 2120 1041 2088 1052 C 2053 1064 2060 1075 2103 1075 C 2148 1075 2153 1094 2109 1098 C 2076 1101 2074 1103 2078 1131 C 2083 1166 2061 1195 2023 1205 C 2005 1209 1999 1216 2003 1229 C 2009 1252 1993 1280 1974 1280 C 1962 1280 1960 1272 1966 1243 C 1972 1207 1981 1196 2032 1159 C 2053 1144 2053 1141 2041 1099 C 2028 1057 2029 1055 2055 1033 C 2100 993 2204 1012 2254 1069 C 2277 1094 2281 1107 2287 1175 C 2292 1240 2261 1302 2202 1347 C 2146 1389 2090 1404 2013 1396 C 1955 1390 1950 1391 1950 1408 C 1950 1421 1959 1429 1978 1433 C 1999 1437 2008 1447 2018 1479 C 2034 1533 2033 1569 2015 1576 C 1993 1585 1996 1596 2031 1639 C 2047 1660 2068 1699 2076 1725 C 2092 1780 2095 1900 2080 1900 C 2075 1900 2070 1878 2070 1851 C 2070 1815 2061 1785 2035 1734 C 1990 1645 1959 1610 1931 1617 C 1912 1622 1914 1626 1954 1665 C 2008 1717 2034 1766 2050 1844 C 2062 1902 2056 1990 2041 1990 C 2036 1990 2030 1961 2028 1926 C 2025 1879 2016 1845 1993 1801 C 1956 1729 1890 1641 1873 1640 C 1845 1639 1853 1662 1895 1705 C 1980 1789 2029 1938 2000 2024 C 1994 2044 1971 2083 1949 2110 C 1897 2175 1915 2174 1983 2108 C 2020 2071 2043 2037 2060 1995 C 2089 1921 2100 1907 2100 1946 C 2100 1989 2059 2069 2008 2127 C 1983 2155 1954 2201 1944 2230 C 1921 2293 1843 2370 1783 2388 C 1732 2403 1660 2402 1595 2385 z M 1945 2050 C 1964 2013 1964 2010 1940 2010 C 1919 2010 1902 2050 1915 2069 C 1924 2085 1928 2083 1945 2050 z M 1950 1942 C 1950 1869 1924 1806 1868 1745 C 1840 1715 1815 1690 1811 1690 C 1807 1690 1791 1714 1776 1743 C 1753 1789 1751 1800 1761 1828 C 1769 1852 1778 1860 1796 1860 C 1825 1860 1825 1853 1803 1789 C 1789 1749 1788 1738 1799 1728 C 1809 1717 1820 1724 1855 1763 C 1901 1813 1932 1887 1934 1952 C 1935 2008 1950 1999 1950 1942 z M 1270 1725 C 1270 1715 1188 1680 1119 1660 C 1033 1637 1040 1637 1040 1650 C 1040 1655 1066 1667 1098 1675 C 1129 1684 1178 1700 1205 1710 C 1259 1730 1270 1733 1270 1725 z M 972 1602 C 946 1589 919 1573 912 1568 C 887 1546 891 1567 918 1593 C 958 1631 1002 1652 1012 1638 C 1016 1630 1002 1617 972 1602 z M 1870 1518 C 1870 1503 1842 1510 1836 1526 C 1826 1552 1841 1565 1857 1545 C 1864 1534 1870 1523 1870 1518 z M 1984 1524 C 2011 1513 2003 1487 1975 1492 C 1944 1498 1933 1485 1957 1471 C 1974 1461 1974 1461 1955 1460 C 1891 1460 1871 1492 1920 1517 C 1948 1531 1961 1533 1984 1524 z M 1811 1510 C 1850 1489 1821 1449 1768 1450 C 1747 1451 1748 1452 1775 1464 C 1811 1479 1793 1495 1756 1480 C 1732 1471 1730 1473 1730 1495 C 1730 1516 1735 1520 1761 1520 C 1778 1520 1800 1515 1811 1510 z M 1659 817 C 1685 766 1686 760 1671 747 C 1628 709 1572 699 1551 724 C 1541 736 1544 742 1564 754 C 1578 763 1602 777 1616 786 C 1642 802 1643 812 1623 867 C 1612 900 1630 874 1659 817 z" stroke-linecap="round" />
</g>
		<g transform="matrix(0.13 0 0 -0.13 -26.41 -82.64)"  >
<path style="stroke: none; stroke-width: 1; stroke-dasharray: none; stroke-linecap: butt; stroke-dashoffset: 0; stroke-linejoin: miter; stroke-miterlimit: 4; fill: rgb(255,255,255); fill-rule: nonzero; opacity: 1;" vector-effect="non-scaling-stroke"  transform=" translate(-1301.94, -2119.77)" d="M 1617 2339 C 1518 2299 1432 2228 1353 2124 C 1275 2020 1213 1986 1102 1988 C 1059 1989 1032 1986 1035 1980 C 1045 1963 1118 1949 1162 1956 C 1250 1969 1311 2016 1438 2168 C 1482 2221 1593 2304 1611 2298 C 1617 2296 1601 2280 1576 2262 C 1550 2243 1489 2180 1439 2120 C 1312 1967 1252 1930 1135 1930 C 1084 1930 1053 1937 997 1960 C 869 2015 807 2009 765 1938 C 745 1903 754 1886 776 1918 C 795 1945 841 1970 872 1970 C 885 1970 938 1950 990 1925 C 1094 1876 1130 1871 1217 1894 C 1333 1925 1410 1981 1525 2119 C 1628 2243 1719 2288 1808 2257 C 1831 2249 1850 2247 1850 2252 C 1850 2277 1818 2318 1782 2338 C 1733 2365 1681 2366 1617 2339 z M 1750 2302 C 1750 2297 1733 2288 1713 2281 C 1692 2274 1669 2266 1663 2264 C 1656 2261 1650 2262 1650 2267 C 1650 2272 1669 2283 1693 2292 C 1743 2312 1750 2313 1750 2302 z" stroke-linecap="round" />
</g>
		<g transform="matrix(0.13 0 0 -0.13 75.09 -69.54)"  >
<path style="stroke: none; stroke-width: 1; stroke-dasharray: none; stroke-linecap: butt; stroke-dashoffset: 0; stroke-linejoin: miter; stroke-miterlimit: 4; fill: rgb(255,255,255); fill-rule: nonzero; opacity: 1;" vector-effect="non-scaling-stroke"  transform=" translate(-2063.16, -2021.59)" d="M 2027 2127 C 2100 2050 2114 2018 2115 1933 C 2115 1843 2134 1841 2138 1930 C 2142 2010 2109 2081 2043 2140 C 1978 2197 1968 2190 2027 2127 z" stroke-linecap="round" />
</g>
		<g transform="matrix(0.13 0 0 -0.13 29.62 -70.67)"  >
<path style="stroke: none; stroke-width: 1; stroke-dasharray: none; stroke-linecap: butt; stroke-dashoffset: 0; stroke-linejoin: miter; stroke-miterlimit: 4; fill: rgb(255,255,255); fill-rule: nonzero; opacity: 1;" vector-effect="non-scaling-stroke"  transform=" translate(-1722.15, -2030)" d="M 1690 2040 C 1690 2030 1722 2010 1738 2010 C 1743 2010 1750 2019 1753 2030 C 1757 2047 1753 2050 1724 2050 C 1705 2050 1690 2046 1690 2040 z" stroke-linecap="round" />
</g>
		<g transform="matrix(0.13 0 0 -0.13 -41.6 4.02)"  >
<path style="stroke: none; stroke-width: 1; stroke-dasharray: none; stroke-linecap: butt; stroke-dashoffset: 0; stroke-linejoin: miter; stroke-miterlimit: 4; fill: rgb(255,255,255); fill-rule: nonzero; opacity: 1;" vector-effect="non-scaling-stroke"  transform=" translate(-1187.98, -1469.85)" d="M 1494 1831 C 1361 1702 1291 1656 1144 1600 C 996 1543 952 1518 877 1446 C 798 1370 748 1267 746 1173 C 745 1104 765 1010 781 1010 C 786 1010 787 1041 784 1079 C 778 1142 780 1154 808 1214 C 860 1325 951 1397 1100 1445 C 1207 1480 1265 1516 1327 1587 C 1359 1624 1440 1711 1508 1779 C 1575 1847 1630 1908 1630 1916 C 1630 1949 1588 1923 1494 1831 z M 1268 1584 C 1245 1564 1210 1540 1191 1530 C 1142 1506 1029 1460 1016 1460 C 991 1460 1043 1493 1111 1521 C 1195 1555 1260 1591 1279 1614 C 1286 1623 1296 1627 1301 1624 C 1306 1621 1291 1603 1268 1584 z M 990 1460 C 990 1449 978 1434 961 1426 C 945 1417 918 1399 901 1384 C 845 1337 853 1370 912 1426 C 972 1484 990 1492 990 1460 z" stroke-linecap="round" />
</g>
		<g transform="matrix(0.13 0 0 -0.13 -89.58 -30.03)"  >
<path style="stroke: none; stroke-width: 1; stroke-dasharray: none; stroke-linecap: butt; stroke-dashoffset: 0; stroke-linejoin: miter; stroke-miterlimit: 4; fill: rgb(255,255,255); fill-rule: nonzero; opacity: 1;" vector-effect="non-scaling-stroke"  transform=" translate(-828.17, -1725.23)" d="M 864 1875 C 802 1844 717 1760 689 1703 C 662 1647 653 1585 670 1565 C 688 1543 703 1547 690 1570 C 667 1614 723 1735 800 1804 C 851 1850 889 1869 945 1877 C 1005 1885 1013 1900 958 1900 C 931 1900 894 1890 864 1875 z" stroke-linecap="round" />
</g>
		<g transform="matrix(0.13 0 0 -0.13 -39.47 28.76)"  >
<path style="stroke: none; stroke-width: 1; stroke-dasharray: none; stroke-linecap: butt; stroke-dashoffset: 0; stroke-linejoin: miter; stroke-miterlimit: 4; fill: rgb(255,255,255); fill-rule: nonzero; opacity: 1;" vector-effect="non-scaling-stroke"  transform=" translate(-1203.95, -1284.31)" d="M 1509 1752 C 1479 1721 1420 1654 1378 1603 C 1291 1500 1250 1471 1122 1428 C 1012 1391 965 1363 911 1305 C 844 1232 816 1161 818 1069 C 821 914 903 784 1010 764 L 1045 758 L 1000 788 C 928 837 915 868 915 985 C 915 1074 918 1092 944 1147 C 986 1238 1062 1307 1194 1372 C 1326 1436 1360 1465 1441 1580 C 1476 1630 1524 1698 1548 1731 C 1571 1764 1590 1795 1590 1801 C 1590 1824 1559 1805 1509 1752 z M 1130 1386 C 1130 1384 1103 1366 1070 1346 C 981 1291 913 1194 880 1075 L 863 1015 L 856 1056 C 837 1167 939 1321 1063 1369 C 1116 1389 1130 1393 1130 1386 z" stroke-linecap="round" />
</g>
		<g transform="matrix(0.13 0 0 -0.13 -79.35 -7.26)"  >
<path style="stroke: none; stroke-width: 1; stroke-dasharray: none; stroke-linecap: butt; stroke-dashoffset: 0; stroke-linejoin: miter; stroke-miterlimit: 4; fill: rgb(255,255,255); fill-rule: nonzero; opacity: 1;" vector-effect="non-scaling-stroke"  transform=" translate(-904.91, -1554.43)" d="M 975 1727 C 887 1695 801 1608 772 1521 C 749 1454 742 1360 760 1360 C 766 1360 770 1386 770 1418 C 770 1541 859 1660 986 1707 C 1027 1722 1060 1738 1060 1742 C 1060 1754 1040 1751 975 1727 z" stroke-linecap="round" />
</g>
		<g transform="matrix(0.13 0 0 -0.13 -29.37 44.24)"  >
<path style="stroke: none; stroke-width: 1; stroke-dasharray: none; stroke-linecap: butt; stroke-dashoffset: 0; stroke-linejoin: miter; stroke-miterlimit: 4; fill: rgb(255,255,255); fill-rule: nonzero; opacity: 1;" vector-effect="non-scaling-stroke"  transform=" translate(-1279.76, -1168.21)" d="M 1472 1582 C 1393 1455 1327 1393 1203 1335 C 1031 1252 980 1180 972 1007 C 967 891 983 837 1035 791 C 1067 763 1124 740 1160 740 C 1168 740 1190 731 1208 720 C 1225 709 1240 704 1240 709 C 1240 725 1195 755 1150 770 C 1091 790 1035 856 1026 916 C 1018 974 1018 1028 1026 1058 C 1038 1102 1050 1079 1050 1011 C 1050 892 1084 831 1175 784 C 1237 753 1260 729 1261 690 L 1262 665 L 1270 693 C 1280 726 1272 757 1237 825 C 1175 943 1168 1058 1215 1156 C 1245 1218 1280 1256 1355 1311 C 1431 1366 1500 1436 1532 1492 C 1564 1547 1592 1633 1588 1662 C 1585 1679 1579 1668 1565 1626 C 1527 1508 1427 1395 1299 1325 C 1229 1287 1214 1300 1282 1338 C 1411 1412 1489 1497 1530 1608 C 1565 1702 1538 1690 1472 1582 z M 1236 1275 C 1240 1267 1230 1244 1215 1224 C 1150 1139 1132 1006 1171 891 C 1183 857 1190 827 1187 824 C 1184 821 1170 826 1156 835 C 1121 858 1090 928 1084 997 C 1078 1062 1063 1100 1043 1100 C 1036 1100 1030 1110 1030 1123 C 1031 1199 1214 1334 1236 1275 z" stroke-linecap="round" />
</g>
		<g transform="matrix(0.13 0 0 -0.13 7.77 1.27)"  >
<path style="stroke: none; stroke-width: 1; stroke-dasharray: none; stroke-linecap: butt; stroke-dashoffset: 0; stroke-linejoin: miter; stroke-miterlimit: 4; fill: rgb(255,255,255); fill-rule: nonzero; opacity: 1;" vector-effect="non-scaling-stroke"  transform=" translate(-1558.25, -1490.49)" d="M 1577 1535 C 1568 1511 1547 1470 1530 1445 C 1494 1393 1505 1384 1546 1433 C 1574 1466 1594 1506 1605 1553 C 1617 1598 1593 1584 1577 1535 z" stroke-linecap="round" />
</g>
		<g transform="matrix(0.13 0 0 -0.13 52.17 68.7)"  >
<path style="stroke: none; stroke-width: 1; stroke-dasharray: none; stroke-linecap: butt; stroke-dashoffset: 0; stroke-linejoin: miter; stroke-miterlimit: 4; fill: rgb(255,255,255); fill-rule: nonzero; opacity: 1;" vector-effect="non-scaling-stroke"  transform=" translate(-1891.31, -984.75)" d="M 1882 988 C 1865 937 1853 894 1855 892 C 1865 881 1879 906 1899 972 C 1932 1079 1932 1080 1922 1080 C 1917 1080 1899 1038 1882 988 z" stroke-linecap="round" />
</g>
		<g transform="matrix(0.13 0 0 -0.13 55.47 79.28)"  >
<path style="stroke: none; stroke-width: 1; stroke-dasharray: none; stroke-linecap: butt; stroke-dashoffset: 0; stroke-linejoin: miter; stroke-miterlimit: 4; fill: rgb(255,255,255); fill-rule: nonzero; opacity: 1;" vector-effect="non-scaling-stroke"  transform=" translate(-1916, -905.43)" d="M 1905 909 C 1901 898 1901 886 1905 882 C 1912 875 1930 899 1930 918 C 1930 938 1912 932 1905 909 z" stroke-linecap="round" />
</g>
</g>
</g>
</svg>