<?xml version="1.0" encoding="UTF-8"?>
<svg version="1.1" xmlns="http://www.w3.org/2000/svg" viewBox="0 0 500 170" width="500" height="170">
<path d="M0 0 C8.188125 -0.061875 16.37625 -0.12375 24.8125 -0.1875 C27.37491455 -0.21481201 29.9373291 -0.24212402 32.57739258 -0.27026367 C34.64143403 -0.27903741 36.70548073 -0.28667924 38.76953125 -0.29296875 C39.81443726 -0.30831665 40.85934326 -0.32366455 41.93591309 -0.33947754 C53.29763592 -0.34346085 63.33185724 2.00140436 71.90625 9.71484375 C78.83794131 16.89619343 81.19879092 24.69585785 81.4375 34.5625 C81.084272 45.45737612 78.64116696 53.0512437 71 61 C66.25606469 65 66.25606469 65 63 65 C63.39268066 65.66942627 63.78536133 66.33885254 64.18994141 67.02856445 C66.00333851 70.12221032 67.81417961 73.21734523 69.625 76.3125 C70.55119141 77.8912793 70.55119141 77.8912793 71.49609375 79.50195312 C72.10839844 80.54931641 72.72070312 81.59667969 73.3515625 82.67578125 C73.90666504 83.62364502 74.46176758 84.57150879 75.03369141 85.5480957 C77.75632179 90.32774196 80.3659766 95.17095711 83 100 C73.76 100 64.52 100 55 100 C48.75 88.9375 48.75 88.9375 46.80371094 85.49194336 C45.71400879 83.56360455 44.60973502 81.64345649 43.49414062 79.72998047 C42 77 42 77 41.17773438 74.72705078 C40.45607402 72.49117738 40.45607402 72.49117738 38 70 C31.07 69.505 31.07 69.505 24 69 C24 79.23 24 89.46 24 100 C16.08 100 8.16 100 0 100 C0 67 0 34 0 0 Z M24 20 C24 29.57 24 39.14 24 49 C27.67125 49.061875 31.3425 49.12375 35.125 49.1875 C36.2711377 49.21481201 37.41727539 49.24212402 38.59814453 49.27026367 C44.13593169 49.31541659 48.27093377 49.23971745 53 46 C56.26331306 42.47905697 57.28814732 39.69606784 57.5 35 C57.29551484 30.31094378 56.20396186 27.55033611 53 24 C48.5245219 20.75527838 44.68596954 19.86739763 39.234375 19.90234375 C38.43225586 19.90484131 37.63013672 19.90733887 36.80371094 19.90991211 C35.79598633 19.91901611 34.78826172 19.92812012 33.75 19.9375 C30.5325 19.958125 27.315 19.97875 24 20 Z " fill="#FFFFFF" transform="translate(263,67)"/>
<path d="M0 0 C0.85309578 0.00291284 1.70619157 0.00582568 2.58513874 0.00882679 C3.48437468 0.00797237 4.38361063 0.00711794 5.31009614 0.00623763 C8.34730764 0.00458006 11.38446486 0.01010869 14.42167133 0.01555592 C16.58927894 0.01583776 18.75688665 0.01568012 20.92449421 0.01511341 C26.82921365 0.01482531 32.73391296 0.02072414 38.63862771 0.02768737 C44.8019392 0.03391875 50.9652511 0.03452454 57.12856525 0.03571278 C68.80872244 0.03882674 80.48887032 0.04704099 92.16902339 0.05706227 C105.4626257 0.06822141 118.75622775 0.07373335 132.04983383 0.0787577 C159.40417221 0.08922355 186.7585023 0.10682423 214.11283344 0.12908131 C215.35367651 2.61076745 215.24216447 4.2933433 215.24564594 7.06658131 C215.246935 8.04369068 215.24822407 9.02080006 215.24955219 10.02751881 C215.245685 11.05103443 215.24181782 12.07455006 215.23783344 13.12908131 C215.24170063 14.15259693 215.24556782 15.17611256 215.24955219 16.23064381 C215.2476186 17.69630787 215.2476186 17.69630787 215.24564594 19.19158131 C215.24451801 20.09005787 215.24339008 20.98853443 215.24222797 21.91423756 C215.11283344 24.12908131 215.11283344 24.12908131 214.11283344 26.12908131 C185.44566815 26.15240659 156.77850427 26.17005865 128.1113314 26.18089348 C114.80168804 26.18605723 101.49205282 26.19310142 88.18241352 26.20452076 C76.586333 26.2144652 64.99025674 26.22093416 53.39417207 26.2231698 C47.24999819 26.22447732 41.10583651 26.22756575 34.96166652 26.23481137 C29.18585934 26.24156779 23.41006945 26.24369904 17.63425869 26.24218899 C15.50771469 26.24246549 13.38117015 26.24447284 11.25462955 26.24828678 C8.3647776 26.25321814 5.47499203 26.25208167 2.58513874 26.24933583 C1.73204295 26.25224867 0.87894717 26.25516151 0 26.25816262 C-5.77304535 26.24320252 -5.77304535 26.24320252 -6.88716656 25.12908131 C-6.98663109 23.36048938 -7.01796873 21.5879668 -7.01997906 19.81658131 C-7.02126812 18.74150318 -7.02255718 17.66642506 -7.02388531 16.55876881 C-7.01808453 14.8610735 -7.01808453 14.8610735 -7.01216656 13.12908131 C-7.01603375 11.99728443 -7.01990093 10.86548756 -7.02388531 9.69939381 C-7.02259625 8.62431568 -7.02130718 7.54923756 -7.01997906 6.44158131 C-7.01885113 5.44771412 -7.0177232 4.45384693 -7.01656109 3.42986256 C-6.7589495 -1.15076317 -3.92268866 0.01016514 0 0 Z " fill="#FFFFFF" transform="translate(254.8871665596962,2.8709186911582947)"/>
<path d="M0 0 C28.66716561 -0.02311534 57.33432899 -0.04097735 86.00150204 -0.05181217 C99.3111454 -0.05697592 112.62078062 -0.06402011 125.93041992 -0.07543945 C137.52650044 -0.08538389 149.1225767 -0.09185285 160.71866137 -0.09408849 C166.86283525 -0.09539601 173.00699693 -0.09848444 179.15116692 -0.10573006 C184.9269741 -0.11248649 190.702764 -0.11461774 196.47857475 -0.11310768 C198.60511875 -0.11338418 200.73166329 -0.11539153 202.85820389 -0.11920547 C205.74805584 -0.12413683 208.63784141 -0.12300036 211.5276947 -0.12025452 C212.38079049 -0.12316736 213.23388627 -0.1260802 214.11283344 -0.12908131 C219.88587879 -0.11412121 219.88587879 -0.11412121 221 1 C221.09946453 2.76859193 221.13080217 4.54111451 221.1328125 6.3125 C221.13410156 7.38757813 221.13539063 8.46265625 221.13671875 9.5703125 C221.13285156 10.70210937 221.12898437 11.83390625 221.125 13 C221.12886719 14.13179687 221.13273438 15.26359375 221.13671875 16.4296875 C221.13478516 18.04230469 221.13478516 18.04230469 221.1328125 19.6875 C221.13168457 20.68136719 221.13055664 21.67523438 221.12939453 22.69921875 C221 25 221 25 220 26 C217.16791027 26.09791944 214.36020719 26.12992595 211.5276947 26.12025452 C210.62845876 26.12110894 209.72922281 26.12196337 208.8027373 26.12284368 C205.7655258 26.12450125 202.72836858 26.11897262 199.69116211 26.11352539 C197.5235545 26.11324355 195.35594679 26.11340119 193.18833923 26.1139679 C187.28361979 26.114256 181.37892048 26.10835717 175.47420573 26.10139394 C169.31089424 26.09516256 163.14758234 26.09455677 156.98426819 26.09336853 C145.304111 26.09025457 133.62396312 26.08204032 121.94381005 26.07201904 C108.65020774 26.06085989 95.35660569 26.05534796 82.06299961 26.05032361 C54.70866106 26.03985776 27.35433144 26.02205676 0 26 C0 17.42 0 8.84 0 0 Z " fill="#FFFFFF" transform="translate(0,142)"/>
<path d="M0 0 C0.9583374 0.00523682 1.9166748 0.01047363 2.90405273 0.01586914 C4.45576172 0.02070312 4.45576172 0.02070312 6.03881836 0.02563477 C7.12743164 0.03401367 8.21604492 0.04239258 9.33764648 0.05102539 C10.97636719 0.05779297 10.97636719 0.05779297 12.64819336 0.06469727 C15.35723144 0.07652713 18.06616248 0.09300996 20.77514648 0.11352539 C24.95944764 8.87080009 28.47476019 17.85171296 31.96435547 26.90008545 C36.83731952 39.5350532 41.76604634 52.14589365 46.82592773 64.70727539 C47.2406987 65.73793121 47.65546967 66.76858704 48.08280945 67.83047485 C50.11034189 72.86562937 52.14432688 77.89806806 54.18603516 82.92749023 C54.92425035 84.7576593 55.66229633 86.58789663 56.40014648 88.41821289 C56.74310257 89.25694946 57.08605865 90.09568604 57.43940735 90.95983887 C57.74871689 91.72969116 58.05802643 92.49954346 58.37670898 93.29272461 C58.64821777 93.96181854 58.91972656 94.63091248 59.19946289 95.32028198 C59.77514648 97.11352539 59.77514648 97.11352539 59.77514648 100.11352539 C51.52514648 100.11352539 43.27514648 100.11352539 34.77514648 100.11352539 C33.78514648 97.67977539 32.79514648 95.24602539 31.77514648 92.73852539 C31.4619043 91.97362793 31.14866211 91.20873047 30.82592773 90.4206543 C28.77514648 85.33574761 28.77514648 85.33574761 28.77514648 83.11352539 C15.90514648 83.11352539 3.03514648 83.11352539 -10.22485352 83.11352539 C-11.21485352 86.41352539 -12.20485352 89.71352539 -13.22485352 93.11352539 C-14.21485352 95.42352539 -15.20485352 97.73352539 -16.22485352 100.11352539 C-24.80485352 100.11352539 -33.38485352 100.11352539 -42.22485352 100.11352539 C-32.45483699 73.91211742 -22.03334206 47.9800739 -11.60131836 22.03637695 C-10.14469897 18.41163311 -8.69517885 14.78432171 -7.25854492 11.15161133 C-6.9755806 10.43750092 -6.69261627 9.7233905 -6.40107727 8.98764038 C-5.68509288 7.17803593 -4.97203674 5.36727361 -4.25927734 3.55639648 C-2.81414016 0.14359433 -2.81414016 0.14359433 0 0 Z M8.77514648 31.11352539 C4.20527659 42.37213142 -0.23276604 53.6362739 -4.22485352 65.11352539 C4.68514648 65.11352539 13.59514648 65.11352539 22.77514648 65.11352539 C21.4076348 61.39584354 20.03897889 57.67861255 18.66748047 53.96240234 C17.97488317 52.08420896 17.28417738 50.20531842 16.59350586 48.32641602 C14.45119378 42.52497234 12.3005127 36.75994221 9.77514648 31.11352539 C9.44514648 31.11352539 9.11514648 31.11352539 8.77514648 31.11352539 Z " fill="#FFFFFF" transform="translate(424.224853515625,66.886474609375)"/>
<path d="M0 0 C7.92 0 15.84 0 24 0 C27.75703691 9.38117537 31.51328186 18.76266685 35.2682333 28.14467716 C37.01290811 32.50378424 38.75789438 36.86276604 40.50366211 41.22143555 C45.0117255 52.47725731 49.51421857 63.73527687 54 75 C54.39453243 75.99070621 54.39453243 75.99070621 54.79703522 77.0014267 C56.36233407 80.93449879 57.92009484 84.87047796 59.47265625 88.80859375 C59.84216904 89.73930191 60.21168182 90.67001007 60.59239197 91.62892151 C60.91776443 92.45834763 61.2431369 93.28777374 61.57836914 94.14233398 C61.85636856 94.84760727 62.13436798 95.55288055 62.42079163 96.27952576 C63 98 63 98 63 100 C54.75 100 46.5 100 38 100 C33.125 88.625 33.125 88.625 32 83 C19.13 83.33 6.26 83.66 -7 84 C-8.98 89.28 -10.96 94.56 -13 100 C-21.58 100 -30.16 100 -39 100 C-34.62254228 87.24487115 -29.7856442 74.73102152 -24.73962402 62.22674561 C-22.52125667 56.72949113 -20.31422644 51.22768336 -18.10546875 45.7265625 C-17.66872833 44.63977203 -17.23198792 43.55298157 -16.78201294 42.43325806 C-12.89803526 32.7628365 -9.06107307 23.07435451 -5.25 13.375 C-4.97396942 12.6727832 -4.69793884 11.97056641 -4.4135437 11.24707031 C-2.94042775 7.49880055 -1.4697914 3.74957733 0 0 Z M12 31 C8.49172941 38.20207471 5.54712235 45.58392726 2.6875 53.0625 C2.32591797 54.00311279 1.96433594 54.94372559 1.59179688 55.9128418 C1.25599609 56.79883057 0.92019531 57.68481934 0.57421875 58.59765625 C0.11921997 59.79660522 0.11921997 59.79660522 -0.3449707 61.01977539 C-1.10468326 62.96884385 -1.10468326 62.96884385 -1 65 C7.58 65 16.16 65 25 65 C24.14669682 60.73348412 23.04329713 57.2049247 21.49609375 53.16796875 C21.2533522 52.53135818 21.01061066 51.89474762 20.76051331 51.23884583 C19.98986692 49.22029578 19.21377563 47.20389099 18.4375 45.1875 C17.91174748 43.81328944 17.38635303 42.43894183 16.86132812 41.06445312 C15.57835902 37.70803931 14.2905006 34.35352636 13 31 C12.67 31 12.34 31 12 31 Z " fill="#FFFFFF" transform="translate(136,4)"/>
<path d="M0 0 C7.59 0 15.18 0 23 0 C23 33 23 66 23 100 C15.41 100 7.82 100 0 100 C0 67 0 34 0 0 Z " fill="#FFFFFF" transform="translate(32,4)"/>
</svg>
